<?xml version="1.0" encoding="UTF-8" standalone="no"?>
<!DOCTYPE svg PUBLIC "-//W3C//DTD SVG 1.1//EN"
 "http://www.w3.org/Graphics/SVG/1.1/DTD/svg11.dtd">
<!-- Generated by graphviz version 12.2.1 (20241206.2353)
 -->
<!-- Title: SlackMind Pages: 1 -->
<svg width="1214pt" height="718pt"
 viewBox="0.00 0.00 1213.60 718.30" xmlns="http://www.w3.org/2000/svg" xmlns:xlink="http://www.w3.org/1999/xlink">
<g id="graph0" class="graph" transform="scale(1 1) rotate(0) translate(4 714.3)">
<title>SlackMind</title>
<polygon fill="white" stroke="none" points="-4,4 -4,-714.3 1209.6,-714.3 1209.6,4 -4,4"/>
<g id="clust1" class="cluster">
<title>cluster_slack</title>
<path fill="#f5f0d0" stroke="#cabf70" d="M20,-232.6C20,-232.6 634,-232.6 634,-232.6 640,-232.6 646,-238.6 646,-244.6 646,-244.6 646,-450.2 646,-450.2 646,-456.2 640,-462.2 634,-462.2 634,-462.2 20,-462.2 20,-462.2 14,-462.2 8,-456.2 8,-450.2 8,-450.2 8,-244.6 8,-244.6 8,-238.6 14,-232.6 20,-232.6"/>
<text text-anchor="middle" x="82" y="-443" font-family="Helvetica,sans-Serif" font-weight="bold" font-size="16.00">Slack Workspace</text>
</g>
<g id="clust2" class="cluster">
<title>cluster_sm</title>
<path fill="#e6e3f2" stroke="#9a91c9" d="M401,-499.2C401,-499.2 673,-499.2 673,-499.2 679,-499.2 685,-505.2 685,-511.2 685,-511.2 685,-690.3 685,-690.3 685,-696.3 679,-702.3 673,-702.3 673,-702.3 401,-702.3 401,-702.3 395,-702.3 389,-696.3 389,-690.3 389,-690.3 389,-511.2 389,-511.2 389,-505.2 395,-499.2 401,-499.2"/>
<text text-anchor="middle" x="537.25" y="-683.1" font-family="Helvetica,sans-Serif" font-weight="bold" font-size="16.00">SlackMind &#160;&#45; &#160;Bolt app (Socket Mode)</text>
</g>
<g id="clust3" class="cluster">
<title>cluster_cx</title>
<path fill="#d5eee9" stroke="#6fbfb0" d="M666,-8C666,-8 974,-8 974,-8 980,-8 986,-14 986,-20 986,-20 986,-316.9 986,-316.9 986,-322.9 980,-328.9 974,-328.9 974,-328.9 666,-328.9 666,-328.9 660,-328.9 654,-322.9 654,-316.9 654,-316.9 654,-20 654,-20 654,-14 660,-8 666,-8"/>
<text text-anchor="middle" x="793.62" y="-309.7" font-family="Helvetica,sans-Serif" font-weight="bold" font-size="16.00">Cortex &#160;&#45; &#160;Memory Server (FastAPI)</text>
</g>
<!-- U -->
<g id="node1" class="node">
<title>U</title>
<path fill="#4a154b" stroke="black" d="M139.72,-429.7C139.72,-429.7 28.28,-429.7 28.28,-429.7 22.28,-429.7 16.28,-423.7 16.28,-417.7 16.28,-417.7 16.28,-385.9 16.28,-385.9 16.28,-379.9 22.28,-373.9 28.28,-373.9 28.28,-373.9 139.72,-373.9 139.72,-373.9 145.72,-373.9 151.72,-379.9 151.72,-385.9 151.72,-385.9 151.72,-417.7 151.72,-417.7 151.72,-423.7 145.72,-429.7 139.72,-429.7"/>
<text text-anchor="middle" x="84" y="-402.95" font-family="Helvetica,sans-Serif" font-size="13.00" fill="white">User</text>
<text text-anchor="middle" x="84" y="-389.45" font-family="Helvetica,sans-Serif" font-size="13.00" fill="white">@mention / DM</text>
</g>
<!-- EH -->
<g id="node5" class="node">
<title>EH</title>
<path fill="#1a1035" stroke="black" d="M665.48,-669.8C665.48,-669.8 408.52,-669.8 408.52,-669.8 402.52,-669.8 396.52,-663.8 396.52,-657.8 396.52,-657.8 396.52,-626 396.52,-626 396.52,-620 402.52,-614 408.52,-614 408.52,-614 665.48,-614 665.48,-614 671.48,-614 677.48,-620 677.48,-626 677.48,-626 677.48,-657.8 677.48,-657.8 677.48,-663.8 671.48,-669.8 665.48,-669.8"/>
<text text-anchor="middle" x="537" y="-643.05" font-family="Helvetica,sans-Serif" font-size="13.00" fill="white">Event handlers</text>
<text text-anchor="middle" x="537" y="-629.55" font-family="Helvetica,sans-Serif" font-size="13.00" fill="white">app_mention / message.im / slash cmds</text>
</g>
<!-- U&#45;&gt;EH -->
<g id="edge1" class="edge">
<title>U&#45;&gt;EH</title>
<path fill="none" stroke="#444444" d="M119.56,-429.97C140.02,-445.47 166.3,-465.15 190,-482.2 241.3,-519.11 250.53,-534.63 307,-563 344.36,-581.77 387.3,-597.68 425.88,-610.14"/>
<polygon fill="#444444" stroke="#444444" points="424.6,-613.41 435.19,-613.11 426.72,-606.74 424.6,-613.41"/>
<text text-anchor="middle" x="350.5" y="-530.65" font-family="Helvetica,sans-Serif" font-size="11.00" fill="#222222">Socket Mode (ws)</text>
</g>
<!-- RTS -->
<g id="node2" class="node">
<title>RTS</title>
<path fill="#4a154b" stroke="black" d="M363.98,-429.7C363.98,-429.7 200.03,-429.7 200.03,-429.7 194.03,-429.7 188.03,-423.7 188.03,-417.7 188.03,-417.7 188.03,-385.9 188.03,-385.9 188.03,-379.9 194.03,-373.9 200.03,-373.9 200.03,-373.9 363.98,-373.9 363.98,-373.9 369.98,-373.9 375.98,-379.9 375.98,-385.9 375.98,-385.9 375.98,-417.7 375.98,-417.7 375.98,-423.7 369.98,-429.7 363.98,-429.7"/>
<text text-anchor="middle" x="282" y="-402.95" font-family="Helvetica,sans-Serif" font-size="13.00" fill="white">Real&#45;Time Search API</text>
<text text-anchor="middle" x="282" y="-389.45" font-family="Helvetica,sans-Serif" font-size="13.00" fill="white">assistant.search.context</text>
</g>
<!-- HIST -->
<g id="node3" class="node">
<title>HIST</title>
<path fill="#4a154b" stroke="black" d="M354.98,-296.4C354.98,-296.4 209.03,-296.4 209.03,-296.4 203.03,-296.4 197.03,-290.4 197.03,-284.4 197.03,-284.4 197.03,-252.6 197.03,-252.6 197.03,-246.6 203.03,-240.6 209.03,-240.6 209.03,-240.6 354.98,-240.6 354.98,-240.6 360.98,-240.6 366.98,-246.6 366.98,-252.6 366.98,-252.6 366.98,-284.4 366.98,-284.4 366.98,-290.4 360.98,-296.4 354.98,-296.4"/>
<text text-anchor="middle" x="282" y="-269.65" font-family="Helvetica,sans-Serif" font-size="13.00" fill="white">conversations.history</text>
<text text-anchor="middle" x="282" y="-256.15" font-family="Helvetica,sans-Serif" font-size="13.00" fill="white">(any&#45;plan fallback)</text>
</g>
<!-- RTS&#45;&gt;HIST -->
<g id="edge5" class="edge">
<title>RTS&#45;&gt;HIST</title>
<path fill="none" stroke="#444444" stroke-dasharray="5,2" d="M282,-373.59C282,-354.67 282,-329.16 282,-308.14"/>
<polygon fill="#444444" stroke="#444444" points="285.5,-308.18 282,-298.18 278.5,-308.18 285.5,-308.18"/>
<text text-anchor="middle" x="330" y="-338.45" font-family="Helvetica,sans-Serif" font-size="11.00" fill="#222222">Slack AI unavailable</text>
</g>
<!-- BK -->
<g id="node4" class="node">
<title>BK</title>
<path fill="#4a154b" stroke="black" d="M625.73,-429.7C625.73,-429.7 424.27,-429.7 424.27,-429.7 418.27,-429.7 412.27,-423.7 412.27,-417.7 412.27,-417.7 412.27,-385.9 412.27,-385.9 412.27,-379.9 418.27,-373.9 424.27,-373.9 424.27,-373.9 625.73,-373.9 625.73,-373.9 631.73,-373.9 637.73,-379.9 637.73,-385.9 637.73,-385.9 637.73,-417.7 637.73,-417.7 637.73,-423.7 631.73,-429.7 625.73,-429.7"/>
<text text-anchor="middle" x="525" y="-402.95" font-family="Helvetica,sans-Serif" font-size="13.00" fill="white">Block Kit UI</text>
<text text-anchor="middle" x="525" y="-389.45" font-family="Helvetica,sans-Serif" font-size="13.00" fill="white">/memory&#45;audit &#160;/memory&#45;forget</text>
</g>
<!-- API -->
<g id="node7" class="node">
<title>API</title>
<path fill="#0b6b5e" stroke="black" d="M939.85,-296.4C939.85,-296.4 682.15,-296.4 682.15,-296.4 676.15,-296.4 670.15,-290.4 670.15,-284.4 670.15,-284.4 670.15,-252.6 670.15,-252.6 670.15,-246.6 676.15,-240.6 682.15,-240.6 682.15,-240.6 939.85,-240.6 939.85,-240.6 945.85,-240.6 951.85,-246.6 951.85,-252.6 951.85,-252.6 951.85,-284.4 951.85,-284.4 951.85,-290.4 945.85,-296.4 939.85,-296.4"/>
<text text-anchor="middle" x="811" y="-269.65" font-family="Helvetica,sans-Serif" font-size="13.00" fill="white">REST API</text>
<text text-anchor="middle" x="811" y="-256.15" font-family="Helvetica,sans-Serif" font-size="13.00" fill="white">/remember /recall /chat /memories /audit</text>
</g>
<!-- BK&#45;&gt;API -->
<g id="edge12" class="edge">
<title>BK&#45;&gt;API</title>
<path fill="none" stroke="#444444" d="M559.7,-373.71C577.49,-360.95 599.99,-346.47 622,-336.9 635.84,-330.88 640.59,-333.37 655,-328.9 681.16,-320.79 709.26,-310.57 734.31,-300.9"/>
<polygon fill="#444444" stroke="#444444" points="735.38,-304.24 743.43,-297.35 732.84,-297.72 735.38,-304.24"/>
<text text-anchor="middle" x="652" y="-338.45" font-family="Helvetica,sans-Serif" font-size="11.00" fill="#222222">audit / forget</text>
</g>
<!-- PIPE -->
<g id="node6" class="node">
<title>PIPE</title>
<path fill="#1a1035" stroke="black" d="M659.6,-563C659.6,-563 424.4,-563 424.4,-563 418.4,-563 412.4,-557 412.4,-551 412.4,-551 412.4,-519.2 412.4,-519.2 412.4,-513.2 418.4,-507.2 424.4,-507.2 424.4,-507.2 659.6,-507.2 659.6,-507.2 665.6,-507.2 671.6,-513.2 671.6,-519.2 671.6,-519.2 671.6,-551 671.6,-551 671.6,-557 665.6,-563 659.6,-563"/>
<text text-anchor="middle" x="542" y="-536.25" font-family="Helvetica,sans-Serif" font-size="13.00" fill="white">Message pipeline</text>
<text text-anchor="middle" x="542" y="-522.75" font-family="Helvetica,sans-Serif" font-size="13.00" fill="white">recall &#45;&gt; ground &#45;&gt; generate &#45;&gt; store</text>
</g>
<!-- EH&#45;&gt;PIPE -->
<g id="edge2" class="edge">
<title>EH&#45;&gt;PIPE</title>
<path fill="none" stroke="#444444" d="M538.3,-613.64C538.87,-601.75 539.54,-587.6 540.16,-574.67"/>
<polygon fill="#444444" stroke="#444444" points="543.65,-574.89 540.63,-564.74 536.66,-574.56 543.65,-574.89"/>
</g>
<!-- PIPE&#45;&gt;U -->
<g id="edge8" class="edge">
<title>PIPE&#45;&gt;U</title>
<path fill="none" stroke="#444444" d="M412.06,-522.32C338.81,-512.43 246.87,-494.49 170,-462.2 154.5,-455.69 138.96,-446.12 125.44,-436.55"/>
<polygon fill="#444444" stroke="#444444" points="127.78,-433.92 117.64,-430.85 123.65,-439.58 127.78,-433.92"/>
<text text-anchor="middle" x="229.77" y="-471.75" font-family="Helvetica,sans-Serif" font-size="11.00" fill="#222222">reply</text>
</g>
<!-- PIPE&#45;&gt;RTS -->
<g id="edge4" class="edge">
<title>PIPE&#45;&gt;RTS</title>
<path fill="none" stroke="#444444" d="M484.49,-506.74C456.99,-493.51 423.67,-477.27 394,-462.2 377.26,-453.7 359.24,-444.27 342.66,-435.47"/>
<polygon fill="#444444" stroke="#444444" points="344.35,-432.41 333.87,-430.8 341.06,-438.59 344.35,-432.41"/>
<text text-anchor="middle" x="469.71" y="-471.75" font-family="Helvetica,sans-Serif" font-size="11.00" fill="#222222">2. live grounding</text>
</g>
<!-- PIPE&#45;&gt;API -->
<g id="edge3" class="edge">
<title>PIPE&#45;&gt;API</title>
<path fill="none" stroke="#444444" d="M592.56,-506.73C613.01,-494.47 636.17,-479 655,-462.2 708.52,-414.45 758.47,-347.21 786.81,-306.09"/>
<polygon fill="#444444" stroke="#444444" points="789.6,-308.21 792.35,-297.98 783.82,-304.26 789.6,-308.21"/>
<text text-anchor="middle" x="796.57" y="-397.35" font-family="Helvetica,sans-Serif" font-size="11.00" fill="#222222">1. recall (personal+team)</text>
</g>
<!-- PIPE&#45;&gt;API -->
<g id="edge7" class="edge">
<title>PIPE&#45;&gt;API</title>
<path fill="none" stroke="#444444" d="M671.93,-521.33C749.66,-510.7 837.9,-492.32 862,-462.2 898.23,-416.92 865.18,-348.36 838.02,-306.39"/>
<polygon fill="#444444" stroke="#444444" points="840.95,-304.47 832.49,-298.09 835.13,-308.35 840.95,-304.47"/>
<text text-anchor="middle" x="931.21" y="-397.35" font-family="Helvetica,sans-Serif" font-size="11.00" fill="#222222">4. remember (scoped)</text>
</g>
<!-- LLM -->
<g id="node10" class="node">
<title>LLM</title>
<path fill="#8a5a00" stroke="black" d="M1193.6,-71.8C1193.6,-71.8 1006.4,-71.8 1006.4,-71.8 1000.4,-71.8 994.4,-65.8 994.4,-59.8 994.4,-59.8 994.4,-28 994.4,-28 994.4,-22 1000.4,-16 1006.4,-16 1006.4,-16 1193.6,-16 1193.6,-16 1199.6,-16 1205.6,-22 1205.6,-28 1205.6,-28 1205.6,-59.8 1205.6,-59.8 1205.6,-65.8 1199.6,-71.8 1193.6,-71.8"/>
<text text-anchor="middle" x="1100" y="-45.05" font-family="Helvetica,sans-Serif" font-size="13.00" fill="white">LLM provider</text>
<text text-anchor="middle" x="1100" y="-31.55" font-family="Helvetica,sans-Serif" font-size="13.00" fill="white">Claude / OpenAI&#45;compatible</text>
</g>
<!-- PIPE&#45;&gt;LLM -->
<g id="edge6" class="edge">
<title>PIPE&#45;&gt;LLM</title>
<path fill="none" stroke="#444444" d="M672.03,-528.2C831.82,-517.32 1082,-486.86 1082,-402.8 1082,-402.8 1082,-402.8 1082,-160.7 1082,-134.54 1086.54,-105.44 1091.06,-82.96"/>
<polygon fill="#444444" stroke="#444444" points="1094.45,-83.84 1093.09,-73.34 1087.6,-82.4 1094.45,-83.84"/>
<text text-anchor="middle" x="1122.5" y="-264.05" font-family="Helvetica,sans-Serif" font-size="11.00" fill="#222222">3. generate reply</text>
</g>
<!-- ENG -->
<g id="node8" class="node">
<title>ENG</title>
<path fill="#0b6b5e" stroke="black" d="M965.73,-189.6C965.73,-189.6 674.27,-189.6 674.27,-189.6 668.27,-189.6 662.27,-183.6 662.27,-177.6 662.27,-177.6 662.27,-145.8 662.27,-145.8 662.27,-139.8 668.27,-133.8 674.27,-133.8 674.27,-133.8 965.73,-133.8 965.73,-133.8 971.73,-133.8 977.73,-139.8 977.73,-145.8 977.73,-145.8 977.73,-177.6 977.73,-177.6 977.73,-183.6 971.73,-189.6 965.73,-189.6"/>
<text text-anchor="middle" x="820" y="-162.85" font-family="Helvetica,sans-Serif" font-size="13.00" fill="white">Memory Engine</text>
<text text-anchor="middle" x="820" y="-149.35" font-family="Helvetica,sans-Serif" font-size="13.00" fill="white">dedupe / reinforce / supersede / decay+forget</text>
</g>
<!-- API&#45;&gt;ENG -->
<g id="edge9" class="edge">
<title>API&#45;&gt;ENG</title>
<path fill="none" stroke="#444444" d="M813.34,-240.24C814.36,-228.35 815.58,-214.2 816.69,-201.27"/>
<polygon fill="#444444" stroke="#444444" points="820.17,-201.6 817.54,-191.33 813.2,-201 820.17,-201.6"/>
</g>
<!-- STORE -->
<g id="node9" class="node">
<title>STORE</title>
<path fill="#0b6b5e" stroke="black" d="M918.85,-71.8C918.85,-71.8 721.15,-71.8 721.15,-71.8 715.15,-71.8 709.15,-65.8 709.15,-59.8 709.15,-59.8 709.15,-28 709.15,-28 709.15,-22 715.15,-16 721.15,-16 721.15,-16 918.85,-16 918.85,-16 924.85,-16 930.85,-22 930.85,-28 930.85,-28 930.85,-59.8 930.85,-59.8 930.85,-65.8 924.85,-71.8 918.85,-71.8"/>
<text text-anchor="middle" x="820" y="-45.05" font-family="Helvetica,sans-Serif" font-size="13.00" fill="white">Persisted store + audit trail</text>
<text text-anchor="middle" x="820" y="-31.55" font-family="Helvetica,sans-Serif" font-size="13.00" fill="white">atomic JSON, per&#45;namespace</text>
</g>
<!-- ENG&#45;&gt;STORE -->
<g id="edge10" class="edge">
<title>ENG&#45;&gt;STORE</title>
<path fill="none" stroke="#444444" d="M820,-133.55C820,-118.7 820,-100.06 820,-83.7"/>
<polygon fill="#444444" stroke="#444444" points="823.5,-83.79 820,-73.79 816.5,-83.79 823.5,-83.79"/>
</g>
<!-- ENG&#45;&gt;LLM -->
<g id="edge11" class="edge">
<title>ENG&#45;&gt;LLM</title>
<path fill="none" stroke="#444444" d="M844.37,-133.34C857.16,-120.52 873.78,-106.06 891.25,-96.8 892.46,-96.16 936.08,-85.28 983.14,-73.65"/>
<polygon fill="#444444" stroke="#444444" points="983.85,-77.08 992.71,-71.29 982.17,-70.29 983.85,-77.08"/>
<text text-anchor="middle" x="972.62" y="-98.35" font-family="Helvetica,sans-Serif" font-size="11.00" fill="#222222">embeddings + contradiction check</text>
</g>
</g>
</svg>
